<?xml version="1.0" standalone="no"?>
<!DOCTYPE svg PUBLIC "-//W3C//DTD SVG 20010904//EN"
 "http://www.w3.org/TR/2001/REC-SVG-20010904/DTD/svg10.dtd">
<svg version="1.0" xmlns="http://www.w3.org/2000/svg"
 width="700.000000pt" height="700.000000pt" viewBox="0 0 700.000000 700.000000"
 preserveAspectRatio="xMidYMid meet">
<metadata>
Created by potrace 1.11, written by Peter Selinger 2001-2013
</metadata>
<g transform="translate(0.000000,700.000000) scale(0.100000,-0.100000)"
fill="#000000" stroke="none">
<path d="M3360 6904 c-749 -38 -1374 -267 -1955 -717 -151 -118 -436 -398
-552 -542 -385 -483 -636 -1041 -717 -1595 -64 -437 -58 -807 20 -1200 177
-897 721 -1714 1461 -2193 544 -352 1073 -524 1714 -557 956 -50 1886 303
2557 968 547 543 883 1214 994 1987 19 126 22 196 22 435 0 290 -7 381 -45
600 -129 735 -523 1446 -1076 1941 -549 493 -1228 791 -1953 858 -124 11 -378
19 -470 15z m525 -513 c324 -52 583 -135 880 -281 700 -343 1221 -908 1479
-1604 83 -221 143 -537 168 -874 73 -994 -481 -2039 -1387 -2616 -136 -87
-433 -229 -587 -280 -314 -105 -553 -139 -983 -140 -323 -1 -407 9 -676 78
-1026 263 -1888 1138 -2114 2146 -73 323 -94 783 -50 1086 90 633 397 1234
856 1679 183 177 296 267 499 395 340 215 784 373 1193 425 164 21 550 13 722
-14z"/>
<path d="M4550 5221 c-190 -152 -530 -429 -755 -616 -226 -187 -571 -473 -767
-635 l-356 -295 511 -3 c401 -2 514 1 523 10 19 21 1196 1809 1192 1812 -1 2
-158 -121 -348 -273z"/>
<path d="M3222 3213 c-207 -310 -1122 -1702 -1122 -1707 0 -15 744 587 1370
1109 146 121 391 324 545 449 154 126 289 237 300 248 19 17 5 18 -498 18
l-517 0 -78 -117z"/>
</g>
</svg>
